<?xml version="1.0" encoding="UTF-8" standalone="no"?>
<svg
   xmlns:dc="http://purl.org/dc/elements/1.1/"
   xmlns:cc="http://creativecommons.org/ns#"
   xmlns:rdf="http://www.w3.org/1999/02/22-rdf-syntax-ns#"
   xmlns:svg="http://www.w3.org/2000/svg"
   xmlns="http://www.w3.org/2000/svg"
   xmlns:sodipodi="http://sodipodi.sourceforge.net/DTD/sodipodi-0.dtd"
   xmlns:inkscape="http://www.inkscape.org/namespaces/inkscape"
   width="300mm"
   height="100mm"
   viewBox="0 0 300 100"
   version="1.1"
   id="svg769"
   inkscape:version="1.0.1 (3bc2e813f5, 2020-09-07)"
   sodipodi:docname="MedalOfHonour.svg"
   inkscape:export-filename="D:\Docs\unitedvuaqava\Medals\Military &amp; Police\Breastbars\MedalOfHonour.png"
   inkscape:export-xdpi="342.92099"
   inkscape:export-ydpi="342.92099">
  <defs
     id="defs763">
    <linearGradient
       id="linearGradient2893">
      <stop
         style="stop-color:white;stop-opacity:0.3137255;"
         offset="0"
         id="stop2895" />
      <stop
         id="stop2897"
         offset="0.19"
         style="stop-color:white;stop-opacity:0.25098041;" />
      <stop
         style="stop-color:#6b6b6b;stop-opacity:0.1254902;"
         offset="0.60000002"
         id="stop2901" />
      <stop
         style="stop-color:black;stop-opacity:0.1254902;"
         offset="1"
         id="stop2899" />
    </linearGradient>
  </defs>
  <sodipodi:namedview
     id="base"
     pagecolor="#ffffff"
     bordercolor="#666666"
     borderopacity="1.0"
     inkscape:pageopacity="0.0"
     inkscape:pageshadow="2"
     inkscape:zoom="0.7"
     inkscape:cx="189.64747"
     inkscape:cy="212.83735"
     inkscape:document-units="mm"
     inkscape:current-layer="layer1-7"
     inkscape:document-rotation="0"
     showgrid="false"
     inkscape:snap-page="true"
     inkscape:snap-bbox="true"
     inkscape:bbox-paths="true"
     inkscape:bbox-nodes="true"
     inkscape:snap-bbox-edge-midpoints="true"
     inkscape:snap-bbox-midpoints="true"
     inkscape:object-paths="true"
     inkscape:snap-intersection-paths="true"
     inkscape:snap-smooth-nodes="true"
     inkscape:snap-midpoints="true"
     inkscape:snap-object-midpoints="true"
     inkscape:snap-center="true"
     inkscape:snap-text-baseline="true"
     inkscape:window-width="1920"
     inkscape:window-height="1227"
     inkscape:window-x="-8"
     inkscape:window-y="-8"
     inkscape:window-maximized="1" />
  <metadata
     id="metadata766">
    <rdf:RDF>
      <cc:Work
         rdf:about="">
        <dc:format>image/svg+xml</dc:format>
        <dc:type
           rdf:resource="http://purl.org/dc/dcmitype/StillImage" />
        <dc:title />
      </cc:Work>
    </rdf:RDF>
  </metadata>
  <g
     inkscape:label="Layer 1"
     inkscape:groupmode="layer"
     id="layer1">
    <rect
       style="opacity:0.99;fill:#67017f;fill-opacity:0.992157;stroke:#000000;stroke-width:0.865;stroke-linecap:round;stroke-opacity:0"
       id="rect785"
       width="300"
       height="100"
       x="0"
       y="0" />
    <rect
       style="opacity:0.99;fill:#d3a802;fill-opacity:1;stroke:#000000;stroke-width:0.865;stroke-linecap:round;stroke-opacity:0"
       id="rect787"
       width="100"
       height="100"
       x="0"
       y="0" />
    <rect
       style="opacity:0.99;fill:#d3a802;fill-opacity:1;stroke:#000000;stroke-width:0.865;stroke-linecap:round;stroke-opacity:0"
       id="rect787-3"
       width="100"
       height="100"
       x="200"
       y="0" />
    <g
       inkscape:label="Layer 1"
       id="layer1-7"
       transform="translate(-213.85681,-228.66768)">
      <g
         id="layer2"
         inkscape:label="Meubles"
         transform="matrix(0.26458333,0,0,0.26458333,-8e-6,9.6370016e-5)" />
      <g
         id="g1987"
         transform="matrix(0.73950403,0,0,0.73952753,398.32935,-42.926395)">
        <g
           id="g1977"
           style="fill:#6a5e50;stroke:none"
           transform="matrix(0.99987001,0,0,0.99984797,-0.00895095,0.13548735)">
          <path
             style="fill:#ffffff;fill-opacity:1;stroke:none"
             inkscape:connector-curvature="0"
             d="m -62.233621,438.82885 c -0.37,0 -0.7613,-0.1 -1.1913,-0.30375 -1.6037,-0.7525 -2.875873,-2.44077 -3.994673,-4.07702 -0.9375,-1.35375 -1.765114,-2.95516 -2.546414,-4.98016 -0.2437,-0.64375 -0.485,-1.28625 -0.725,-1.92875 -1.3937,-3.72625 -7.218315,-10.95966 -9.538315,-14.32216 -0.1638,-0.23625 -0.1438,-0.55375 0.046,-0.77 0.1912,-0.21375 0.5062,-0.27125 0.7575,-0.13875 2.165,1.13625 8.433102,5.99178 9.746902,7.70303 0.5175,0.66875 0.86652,1.69712 1.37272,2.38212 0.5713,0.77 1.14,1.54125 1.7275,2.29375 2.6075,3.32125 5.727173,5.47315 9.079673,6.54565 0.17,0.0538 0.31,0.17875 0.3825,0.3425 0.071,0.165 0.069,0.35125 0,0.51375 l -0.1588,0.345 c -0.835,1.81 -2.136093,3.74229 -3.076093,5.21354 -0.505,0.78375 -1.1375,1.18125 -1.8775,1.18125"
             id="path2108" />
          <path
             style="fill:#ffffff;fill-opacity:1;stroke:none"
             inkscape:connector-curvature="0"
             d="m -18.110901,449.75466 c -2.8913,0 -7.926081,0.15325 -11.722381,-0.42925 -0.2537,-0.0387 -0.4587,-0.23 -0.515,-0.48 -0.056,-0.25125 0.046,-0.51125 0.2588,-0.655 l 0.7275,-0.49375 c 0.9775,-0.66375 3.688468,-2.01915 4.430968,-2.51665 0.6713,-0.44375 1.5363,-0.80625 2.5,-0.50125 2.2588,0.7275 8.13567,0.50469 11.27937,0.50469 1.6412998,0 3.3249998,-0.0875 4.9512998,-0.1725 l 0.6475,-0.0337 c 0.2825,-0.004 0.485,0.0188 0.6812,0.0412 0.105,0.0138 0.21,0.0263 0.3213,0.035 0.2425,0.0175 0.4525,0.17375 0.5375,0.40125 0.086,0.22625 0.034,0.4825 -0.1363,0.65625 -1.7212,1.77375 -8.8717568,3.64371 -13.9617568,3.64371"
             id="path2110" />
          <path
             style="fill:#ffffff;fill-opacity:1;stroke:none"
             inkscape:connector-curvature="0"
             d="m -52.249276,456.03166 c -4.3638,0 -8.909125,-1.662 -13.069125,-4.05575 -0.2588,-0.1475 -0.525,-0.2825 -0.7913,-0.4175 -0.4512,-0.23125 -0.92,-0.46875 -1.3612,-0.76875 -3.8438,-2.56875 -9.46134,-2.49542 -14.668835,-1.31042 l -0.3375,0.08 c -0.9562,0.23 -2.085,0.4075 -3.2537,0.0588 -0.1938,-0.0575 -0.3475,-0.20375 -0.4125,-0.39375 -0.066,-0.19 -0.035,-0.4 0.08,-0.565 2.9275,-4.15875 7.814743,-7.45452 12.174743,-7.84577 0.8937,-0.0838 1.8287,-0.12375 2.8587,-0.12375 1.5263,0 3.035,0.0925 4.1775,0.1725 4.5,0.30875 7.474092,-1.10631 9.156592,-5.08381 2.8687,-6.77875 8.1425,-11.125 16.125,-13.28375 2.3925,-0.65125 4.8387,-1.22375 7.2075,-1.77875 1.0225,-0.24 2.0487,-0.48 3.0712,-0.72625 4.57,-1.06875 10.022381,-3.8285 13.296081,-5.66975 0.12,-0.0638 0.225,-0.1275 0.3325,-0.1925 0.4975,-0.30375 1.14,-0.7 2.1088,-0.5275 0.1737,0.03 0.3275,0.1325 0.42,0.2825 0.092,0.14875 0.904436,0.89156 0.074,0.5 -0.3788,1.35625 -1.2775,2.21875 -2.07,2.97875 l -0.21,0.2025 c -4.287228,5.32756 -9.258581,7.84425 -13.646081,9.61175 l -0.6563,0.2675 c -2.6687,1.085 -5.3375,2.02058 -8.0062,3.09558 -2.7488,1.1025 -4.588508,3.70517 -5.469708,6.73017 l -0.066,0.22375 c -0.036,0.1375 -0.075,0.275 -0.1263,0.40625 -1.8092,7.30798 -5.150342,8.99144 -11.271492,8.061 -0.5925,0 -1.2125,-0.0263 -1.8625,-0.0775 -0.1775,-0.015 -0.3513,-0.055 -0.5225,-0.0975 -0.1125,-0.0275 -0.2188,-0.0588 -0.3288,-0.0625 -0.305,0 -0.3812,0.065 -0.55,0.73875 l -0.065,0.255 c -0.025,0.0838 -0.033,0.14625 -0.017,0.1675 0.034,0.0562 0.2025,0.1575 0.525,0.20875 2.4613,0.41125 4.347477,0.12345 6.033677,-0.3628 1.8313,-0.525 3.67915,-0.76057 5.87415,-0.53557 0.535,0.0562 1.0838,0.085 1.6388,0.085 2.9437,0 5.733373,-0.45038 8.125873,-1.22663 4.76,-1.5325 9.58,-3.64375 15.625,-6.845 2.255,-1.1975 5.427799,-3.18944 12.5336998,-3.69223 0.4613,-0.1125 0.93,-0.11625 1.3813,-0.11875 0.1637,-10e-4 0.3275,-10e-4 0.4937,-0.008 0.305,-0.005 0.5513,0.18 0.6275,0.46125 0.077,0.2825 -0.054,0.58 -0.3125,0.71625 -5.4409348,1.82434 -12.5406288,5.39438 -15.9406288,7.61813 -1.35,0.885 -2.6988,1.76625 -4.0575,2.62625 -4.1775,2.645 -8.844271,5.4075 -13.666771,7.5675 z"
             id="path2112" />
        </g>
        <path
           style="fill:#d2a703;fill-opacity:1;stroke:none;stroke-width:1.00045"
           inkscape:connector-curvature="0"
           d="m -65.232802,447.15757 c 1.811265,1.31369 3.47656,4.80056 3.501559,6.83991 -2.274956,-0.0125 -8.498862,-3.08868 -10.061332,-4.96538 1.655181,-1.75442 3.808626,-3.86384 6.559773,-1.87453"
           id="path2114" />
        <path
           style="fill:#000000;fill-opacity:1;stroke:none;stroke-width:0.999859"
           inkscape:connector-curvature="0"
           d="m -60.858248,437.8029 c 1.439694,-1.64129 2.881169,-4.27952 3.746487,-6.22092 -3.368468,-1.2623 -6.447529,-2.94747 -8.772227,-5.90952 -1.112355,-1.42478 -2.675998,-3.58883 -3.773503,-5.01442 -1.32718,-1.72393 -3.602727,-4.74919 -10.514596,-8.18837 6.123573,4.80239 8.342983,11.50655 10.042762,15.95587 0.649916,1.68725 1.630003,4.23976 2.667368,5.73953 0.974874,1.42479 2.727913,3.53784 4.327705,4.28773 0.949876,0.44993 1.662284,0.29995 2.276004,-0.6499 z m 53.486762,-2.64517 c -6.48404,-0.53625 -10.222785,0.81497 -14.792973,3.16776 -5.104082,2.62765 -9.783303,4.98884 -15.25609,6.75573 -3.276081,1.05768 -6.034987,1.49495 -9.513451,1.36287 -2.162337,-0.0821 -3.832837,0.0716 -6.066138,0.51516 -2.2333,0.44357 -4.140269,0.7208 -6.239996,0.3709 -0.624919,-0.1 -0.905259,-0.32424 -0.788273,-0.76082 0.299665,-1.11834 0.525284,-0.76775 1.704544,-0.63372 3.318203,0.16674 6.45687,-0.48151 8.578994,-1.59966 1.729895,-0.9115 3.214252,-3.68724 4.31184,-7.0266 1.071162,-3.25895 2.663722,-5.64921 5.174823,-6.68036 2.879026,-1.18224 6.300126,-2.50132 9.190872,-3.67042 4.433311,-1.79296 8.508782,-4.40923 11.953749,-7.71352 0.841992,-0.80761 2.385487,-3.55327 3.408188,-5.43407 -5.132473,2.96027 -10.49451,5.25223 -15.446706,6.43643 -3.425912,0.81922 -8.231353,1.77949 -11.581661,2.86934 -7.345536,2.38951 -11.018039,5.12753 -14.469192,12.13076 -2.170974,4.40543 -5.357784,6.44098 -10.007179,6.11603 -2.3122,-0.16248 -4.649396,-0.26246 -6.936599,-0.05 -4.461919,0.39994 -8.236864,2.68145 -11.403632,7.97794 1.548609,0.083 4.083079,-0.55883 5.070443,-0.7838 6.394925,-1.37528 10.566887,0.98503 15.390492,3.68173 7.915343,4.42517 15.886356,4.16267 24.119477,0.8039 4.781091,-1.95048 9.110923,-4.9957 13.530308,-7.57668 5.434591,-3.17388 11.986476,-8.89739 20.06816,-10.2589 z m 2.9222591,9.9737 c -2.1861498,0.5296 -2.8169408,0.75762 -6.4973701,0.92857 -4.6119,0.23747 -6.699648,0.29832 -11.728561,-0.99301 -0.787398,-0.24996 -1.638921,0.24878 -2.225045,0.63622 -0.913681,0.6124 -3.847127,2.20195 -5.20815,3.12681 9.792747,1.11189 20.6921309,2.03123 25.6591261,-3.69859 z m 3.96949599,-9.63241 c -7.19784829,1.6852 -10.05496409,0.25877 -21.23731609,8.14833 7.425335,1.68724 13.2207523,0.8843 20.4012867,-0.43666 -3.5370401,5.77412 -8.1275663,7.37666 -11.3241757,7.61935 -2.299701,0.23746 -4.596689,0.32234 -6.910188,0.29734 -2.824633,-0.025 -6.899747,-0.0354 -9.663758,-0.5572 -3.804376,-0.71815 -5.392012,0.83618 -8.041668,2.23597 -3.024606,1.58726 -6.185283,2.83848 -9.546046,3.60086 -5.588073,1.23731 -10.40494,1.02648 -15.616762,-1.32316 -2.099727,-0.94985 -4.121637,-1.80233 -6.108879,-2.98965 -3.285773,-1.9747 -5.499006,-3.00614 -9.827302,-2.38921 -3.137465,0.44719 -5.361175,0.91744 -7.624661,1.33771 -1.683531,0.31258 -2.114525,-0.26694 -1.130743,-2.16089 3.519182,-6.77501 9.116251,-9.80464 16.763956,-9.22972 1.199844,0.0875 4.721519,0.34319 6.238831,-0.005 -4.911911,-2.82836 -6.772873,-8.83193 -8.435372,-13.51154 -2.20558,-6.20826 -5.766009,-10.74281 -11.230209,-14.38865 -1.897313,-1.26593 -2.316459,-1.77808 -4.067481,-3.27785 6.471098,1.57403 14.200316,4.47998 19.669969,11.52573 1.478059,1.90396 2.511454,3.73956 4.238118,5.4499 0.922995,0.91426 2.462794,2.40085 3.656571,2.95516 4.013768,1.86368 3.672192,1.96357 6.125426,-0.36267 2.942972,-2.79062 7.311446,-5.2955 11.474529,-6.6198 3.254031,-1.03512 7.59468,-1.90138 10.919787,-2.64887 4.736346,-1.06474 8.79077,-2.59546 12.989008,-5.06188 1.800989,-1.05805 2.776695,-1.83809 4.96391,-2.61297 0.263633,2.27932 -1.050379,5.30516 -2.898748,7.63955 -3.019697,3.8137 -7.563898,6.82123 -12.374266,9.01171 -2.737354,1.2465 -5.500869,2.38295 -8.349061,3.36199 -3.550981,1.22062 -5.893426,3.44506 -6.754423,7.14288 -0.509569,2.18851 -1.8608,4.59653 -3.223122,6.59623 2.099435,0.13203 4.995171,0.0612 6.575216,-0.40023 5.751569,-1.67961 11.31244,-3.74471 16.097032,-6.51122 8.151322,-4.71319 13.654997,-4.76048 18.720617,-4.18954 2.6484687,0.2985 4.2038065,0.26036 5.52992409,1.754 z"
           id="path2116" />
        <circle
           cy="443.80991"
           cx="-73.775993"
           id="ellipse2118"
           style="fill:#000000;fill-opacity:1;fill-rule:nonzero;stroke:none;stroke-width:0.731473;stroke-linecap:round;stroke-linejoin:miter;stroke-miterlimit:4;stroke-dasharray:none;stroke-opacity:1;paint-order:normal"
           r="1.3523295" />
      </g>
      <g
         id="g2330"
         transform="matrix(1.1318685,0,0,1.1309871,-119.78037,-492.13262)" />
    </g>
  </g>
</svg>
