<?xml version="1.0" encoding="UTF-8" standalone="no"?>
<svg
   xmlns:dc="http://purl.org/dc/elements/1.1/"
   xmlns:cc="http://creativecommons.org/ns#"
   xmlns:rdf="http://www.w3.org/1999/02/22-rdf-syntax-ns#"
   xmlns:svg="http://www.w3.org/2000/svg"
   xmlns="http://www.w3.org/2000/svg"
   xmlns:sodipodi="http://sodipodi.sourceforge.net/DTD/sodipodi-0.dtd"
   xmlns:inkscape="http://www.inkscape.org/namespaces/inkscape"
   id="flag"
   version="1.1"
   sodipodi:docname="new columbia.svg"
   width="300"
   height="200"
   inkscape:version="1.0.1 (3bc2e813f5, 2020-09-07)">
  <metadata
     id="metadata865">
    <rdf:RDF>
      <cc:Work
         rdf:about="">
        <dc:format>image/svg+xml</dc:format>
        <dc:type
           rdf:resource="http://purl.org/dc/dcmitype/StillImage" />
        <dc:title></dc:title>
      </cc:Work>
    </rdf:RDF>
  </metadata>
  <defs
     id="defs863" />
  <sodipodi:namedview
     pagecolor="#ffffff"
     bordercolor="#666666"
     borderopacity="1"
     objecttolerance="10"
     gridtolerance="10"
     guidetolerance="10"
     inkscape:pageopacity="0"
     inkscape:pageshadow="2"
     inkscape:window-width="1920"
     inkscape:window-height="1227"
     id="namedview861"
     showgrid="false"
     inkscape:snap-bbox="true"
     inkscape:bbox-paths="true"
     inkscape:bbox-nodes="true"
     inkscape:snap-bbox-edge-midpoints="true"
     inkscape:snap-bbox-midpoints="true"
     inkscape:snap-page="true"
     inkscape:zoom="1"
     inkscape:cx="147.72944"
     inkscape:cy="-143.30536"
     inkscape:window-x="-8"
     inkscape:window-y="-8"
     inkscape:window-maximized="1"
     inkscape:current-layer="dove"
     inkscape:snap-nodes="false" />
  <rect
     width="300"
     height="200"
     x="0"
     y="0"
     fill="#fdc82f"
     id="rect850"
     style="stroke-width:0.333535" />
  <rect
     width="300"
     height="160"
     x="0"
     y="40"
     fill="#000000"
     id="rect852"
     style="stroke-width:0.333535" />
  <rect
     width="300"
     height="40"
     x="0"
     y="160"
     fill="#c60c30"
     id="rect854"
     style="stroke-width:0.333535" />
  <g
     id="dove"
     transform="matrix(1.288767,0,0,1.288767,-945.35768,-579.19945)"
     style="stroke-miterlimit:4.8">
    <g
       id="g2310"
       transform="translate(7.9934679,139.77348)">
      <path
         d="m 854.43,366.27 c 3.0348,-1.7004 3.6432,-7.6572 3.6432,-7.6572 -0.72601,2.1912 -6.3108,4.3752 -6.3108,4.3752 4.1268,-2.556 9.102,-14.084 9.102,-14.084 -1.3344,4.1292 -12.138,7.5264 -19.061,11.411 -6.9228,3.8832 -3.2784,15.058 -3.2784,15.058 -1.9404,-1.3368 -5.706,-7.2828 -6.432,-12.509 -0.7332,-5.2188 -2.796,-7.2804 -7.5312,-7.8888 -4.7376,-0.6084 -7.5288,4.7316 -7.5288,4.7316 l -7.0404,3.6468 7.1592,0.24 c 0,0 5.106,1.704 5.106,5.7096 0,4.0092 -4.4928,20.035 2.91,29.022 5.1528,6.2448 24.166,9.8328 24.166,9.8328"
         stroke="#000000"
         stroke-width="1"
         fill="#ffffff"
         id="path1560" />
      <path
         d="m 840.47,378.65 c 0,0 1.4568,-7.1652 6.192,-6.9216 4.7352,0.2424 6.0708,-5.34 8.8632,-6.192 2.7924,-0.8484 17.242,-4.7316 18.821,-11.656 0,0 -1.3356,11.416 -14.568,17.122 0,0 10.681,-3.5232 11.898,-5.8308 0,0 -4.7388,10.2 -16.272,11.778 0,0 10.806,-0.8484 12.385,-3.7608 0,0 -4.8576,6.4332 -12.869,7.2852 0,0 7.4052,3.0348 9.3492,0.4836 0,0 -4.008,4.7352 -8.988,5.0964 l 1.3392,0.366 c 0,0 -4.7352,5.5872 -9.9576,1.8216 -5.2188,-3.7656 -5.3436,0.9744 -5.3436,0.9744"
         stroke="#000000"
         stroke-width="1"
         fill="#ffffff"
         id="path1562" />
      <path
         d="m 851.25,389.45 c 0,0 6.0984,10.202 6.7068,15.665 0,0 11.658,12.872 16.028,13.595 0,0 -2.0652,0.8484 -5.8308,-2.3052 0,0 3.1572,3.2784 3.7656,3.4008 0.6048,0.12482 -2.5512,-0.2436 -3.0384,-1.0956 0,0 1.338,1.9476 2.1864,2.19 0.852,0.2436 -0.8484,-0.2424 -0.8484,-0.2424 0,0 -1.5816,-0.2436 -2.3088,-0.852 -0.7296,-0.6048 -0.2436,1.5756 -0.2436,1.5756 0,0 -1.8216,-0.486 -2.4264,-1.092 -0.6084,-0.6048 0.2436,1.3392 0.2436,1.3392 l -1.578,-0.366 -1.092,0.726 c 0,0 -0.1224,0.7296 -0.8556,0.1224 -0.7236,-0.6012 -2.0616,0 -2.0616,0 0,0 -0.9744,0.852 -1.4568,0.2436 -0.4824,-0.606 -2.3232,2.3352 -2.3232,2.3352 l -7.6452,-18.455"
         stroke="#000000"
         stroke-width="1"
         fill="#ffffff"
         id="path1564" />
      <g
         fill="#000000"
         id="g1572">
        <rect
           width="20.775999"
           height="1.146"
           x="-773.67999"
           y="563.31"
           transform="rotate(-117.71558)"
           id="rect1566" />
        <rect
           width="24.816999"
           height="1.1507"
           x="-892.01001"
           y="365.70001"
           transform="rotate(-131.76915)"
           id="rect1568" />
        <rect
           width="25.785999"
           height="1.1485"
           x="-923.37"
           y="286.32999"
           transform="rotate(-137.01793)"
           id="rect1570" />
      </g>
      <path
         d="m 816.78,359.83 c 0,0 0.6756,1.398 0.6852,1.422 -0.0684,0.004 -0.7632,2.2572 -0.7632,2.2572 l 0.5532,0.1704 0.75,-2.454 c -0.0132,-0.2124 -0.7032,-1.6416 -0.7032,-1.6416 z"
         id="path1576"
         style="fill:#000000" />
      <circle
         style="opacity:0.99;fill:#000000;fill-opacity:1;stroke:#ffffff;stroke-width:0;stroke-linecap:square;stroke-linejoin:round;stroke-miterlimit:4.8;stroke-dasharray:none;paint-order:stroke markers fill"
         id="path2299"
         cx="820.48981"
         cy="358.67572"
         r="0.77593547" />
    </g>
  </g>
</svg>
